<svg width="12" height="12" viewBox="0 0 12 12" fill="none" xmlns="http://www.w3.org/2000/svg">
<path d="M12 0H11V1H10V2H9V3H8V4H7V5H6V6H5V7H4V8H3V9H2V10H1V11H0V12H1V11H2V10H3V9H4V8H5V7H6V6H7V5H8V4H9V3H10V2H11V1H12V0Z" fill="black"/>
<path d="M5 11H4V12H5V11Z" fill="black"/>
<path d="M6 10V11H5V10H6Z" fill="black"/>
<path d="M7 9H6V10H7V9Z" fill="black"/>
<path d="M8 8V9H7V8H8Z" fill="black"/>
<path d="M9 7H8V8H9V7Z" fill="black"/>
<path d="M10 6V7H9V6H10Z" fill="black"/>
<path d="M11 5H10V6H11V5Z" fill="black"/>
<path d="M11 5H12V4H11V5Z" fill="black"/>
<path d="M12 8H11V9H10V10H9V11H8V12H9V11H10V10H11V9H12V8Z" fill="black"/>
</svg>
